<svg xmlns="http://www.w3.org/2000/svg" xmlns:xlink="http://www.w3.org/1999/xlink" width="225" zoomAndPan="magnify" viewBox="0 0 168.75 74.999997" height="100" preserveAspectRatio="xMidYMid meet" version="1.0"><defs><g/><clipPath id="98d7488eb0"><path d="M 23 45 L 29 45 L 29 56 L 23 56 Z M 23 45 " clip-rule="nonzero"/></clipPath><clipPath id="c3434b6906"><path d="M 19.179688 33.59375 L 43.042969 44.53125 L 30.855469 71.121094 L 6.992188 60.183594 Z M 19.179688 33.59375 " clip-rule="nonzero"/></clipPath><clipPath id="e121960b9f"><path d="M 19.179688 33.59375 L 43.042969 44.53125 L 30.855469 71.121094 L 6.992188 60.183594 Z M 19.179688 33.59375 " clip-rule="nonzero"/></clipPath><clipPath id="ecce88ec77"><path d="M 19.179688 33.59375 L 43.042969 44.53125 L 30.855469 71.121094 L 6.992188 60.183594 Z M 19.179688 33.59375 " clip-rule="nonzero"/></clipPath><clipPath id="204a036d0f"><path d="M 11 38 L 41 38 L 41 67 L 11 67 Z M 11 38 " clip-rule="nonzero"/></clipPath><clipPath id="28053a0ce5"><path d="M 19.179688 33.59375 L 43.042969 44.53125 L 30.855469 71.121094 L 6.992188 60.183594 Z M 19.179688 33.59375 " clip-rule="nonzero"/></clipPath><clipPath id="b90d8404ac"><path d="M 19.179688 33.59375 L 43.042969 44.53125 L 30.855469 71.121094 L 6.992188 60.183594 Z M 19.179688 33.59375 " clip-rule="nonzero"/></clipPath><clipPath id="9e5be1416e"><path d="M 19.179688 33.59375 L 43.042969 44.53125 L 30.855469 71.121094 L 6.992188 60.183594 Z M 19.179688 33.59375 " clip-rule="nonzero"/></clipPath></defs><g clip-path="url(#98d7488eb0)"><g clip-path="url(#c3434b6906)"><g clip-path="url(#e121960b9f)"><g clip-path="url(#ecce88ec77)"><path fill="#000000" d="M 27.738281 45.882812 C 27.289062 45.675781 26.761719 45.867188 26.558594 46.308594 L 23.148438 53.75 C 22.945312 54.191406 23.144531 54.714844 23.59375 54.921875 C 24.042969 55.128906 24.574219 54.9375 24.773438 54.496094 L 28.1875 47.054688 C 28.390625 46.613281 28.1875 46.089844 27.738281 45.882812 Z M 27.738281 45.882812 " fill-opacity="1" fill-rule="nonzero"/></g></g></g></g><g clip-path="url(#204a036d0f)"><g clip-path="url(#28053a0ce5)"><g clip-path="url(#b90d8404ac)"><g clip-path="url(#9e5be1416e)"><path fill="#000000" d="M 40.078125 50.832031 C 40.078125 50.832031 40.210938 49.527344 39.789062 48.425781 C 39.367188 47.320312 38.390625 46.417969 38.390625 46.417969 L 34.855469 47.691406 C 33.953125 46.222656 32.746094 44.921875 31.28125 43.886719 L 32.835938 40.496094 C 32.835938 40.496094 31.992188 39.464844 30.90625 38.96875 C 29.824219 38.472656 28.496094 38.503906 28.496094 38.503906 L 26.9375 41.898438 C 21.082031 40.425781 14.851562 43.199219 12.296875 48.777344 C 9.40625 55.082031 12.289062 62.609375 18.71875 65.558594 C 25.152344 68.507812 32.734375 65.777344 35.625 59.472656 C 36.71875 57.085938 36.984375 54.527344 36.546875 52.105469 Z M 19.453125 63.964844 C 13.917969 61.425781 11.4375 54.949219 13.925781 49.523438 C 16.410156 44.097656 22.9375 41.75 28.46875 44.285156 C 34.003906 46.824219 36.484375 53.300781 33.996094 58.726562 C 31.511719 64.148438 24.984375 66.5 19.453125 63.964844 Z M 19.453125 63.964844 " fill-opacity="1" fill-rule="nonzero"/></g></g></g></g><path stroke-linecap="butt" transform="matrix(0.788865, 0, 0, 0.788865, 39.321165, 39.465921)" fill="none" stroke-linejoin="miter" d="M 10.932354 4.559184 C 10.97692 4.331404 11.046244 4.182852 11.145279 4.103624 C 11.249265 4.029348 11.437431 3.989734 11.704825 3.989734 L 32.200063 3.989734 C 32.472409 3.989734 32.640768 4.029348 32.710092 4.103624 C 32.774465 4.182852 32.784368 4.331404 32.739802 4.559184 L 32.130739 8.976133 C 32.110932 9.159347 32.046559 9.273237 31.942573 9.332658 C 31.843538 9.387127 31.685082 9.411886 31.457303 9.411886 L 25.49046 9.411886 C 25.267632 9.411886 25.11908 9.446548 25.054707 9.520824 C 24.990334 9.585196 24.935865 9.728797 24.8913 9.956577 L 22.291638 28.35723 C 22.266879 28.604817 22.202507 28.773176 22.09852 28.867259 C 21.999486 28.95639 21.850933 29.000956 21.647912 29.000956 L 15.309689 29.000956 C 14.859081 29.000956 14.636253 28.817742 14.636253 28.456265 C 14.636253 28.32752 14.651108 28.21363 14.675867 28.12945 L 17.270577 9.817928 L 17.270577 9.718893 C 17.270577 9.515872 17.156687 9.411886 16.933859 9.411886 L 10.897692 9.411886 C 10.655057 9.411886 10.486698 9.372272 10.40747 9.297996 C 10.328242 9.218768 10.303484 9.080119 10.32329 8.877098 Z M 42.578903 3.989734 C 42.960187 3.989734 43.118642 4.29179 43.05427 4.895902 L 39.786124 28.228485 C 39.736606 28.560251 39.642523 28.773176 39.508826 28.867259 C 39.37513 28.95639 39.107736 29.000956 38.701693 29.000956 L 32.838837 29.000956 C 32.368422 29.000956 32.130739 28.763272 32.130739 28.292857 L 32.165401 27.956139 L 35.468209 4.559184 C 35.488016 4.311597 35.537534 4.153141 35.61181 4.088769 C 35.695989 4.024396 35.83959 3.989734 36.042611 3.989734 Z M 43.856451 29.000956 C 43.65343 29.000956 43.50983 28.961342 43.420698 28.887066 C 43.331567 28.802886 43.287001 28.659286 43.287001 28.456265 C 43.287001 28.367134 43.31176 28.169064 43.356326 27.857105 L 46.61952 4.559184 C 46.644279 4.286838 46.693796 4.128383 46.768072 4.068962 C 46.852252 4.014493 47.015659 3.989734 47.263246 3.989734 L 56.701256 3.989734 C 57.19643 3.989734 57.503437 4.247224 57.617327 4.762205 L 59.632684 15.41339 C 59.632684 15.547087 59.682202 15.616412 59.771333 15.616412 C 59.840657 15.616412 59.90503 15.547087 59.969402 15.41339 L 64.728021 4.796867 C 64.836959 4.484908 64.955801 4.271983 65.089498 4.163045 C 65.228147 4.049155 65.406409 3.989734 65.634189 3.989734 L 75.61689 3.989734 C 75.973415 3.989734 76.117016 4.167996 76.052643 4.524521 L 72.720124 28.228485 C 72.670607 28.560251 72.581476 28.773176 72.457682 28.867259 C 72.333889 28.95639 72.076398 29.000956 71.675308 29.000956 L 65.970907 29.000956 C 65.658948 29.000956 65.426216 28.951438 65.277664 28.852404 C 65.134064 28.748417 65.064739 28.560251 65.064739 28.292857 C 65.064739 28.154209 65.074643 28.040319 65.099402 27.956139 L 67.189034 13.155398 L 67.189034 13.01675 C 67.189034 12.927619 67.164276 12.888005 67.124662 12.888005 C 67.030579 12.888005 66.936496 12.996943 66.852316 13.224723 L 59.805995 28.565203 C 59.711912 28.743466 59.607926 28.862307 59.494036 28.916776 C 59.385097 28.971245 59.231594 29.000956 59.033524 29.000956 L 55.483129 29.000956 C 55.265252 29.000956 55.096893 28.951438 54.983004 28.852404 C 54.874065 28.748417 54.784934 28.540444 54.710658 28.228485 L 51.977299 13.323758 C 51.912927 13.076171 51.823796 12.952377 51.714857 12.952377 C 51.620774 12.952377 51.556402 13.051412 51.511836 13.254433 L 49.352879 28.456265 C 49.333072 28.684045 49.268699 28.827645 49.164713 28.901921 C 49.065678 28.966294 48.902271 29.000956 48.679443 29.000956 Z M 79.548569 4.559184 C 79.573328 4.311597 79.622845 4.153141 79.697121 4.088769 C 79.781301 4.024396 79.924901 3.989734 80.127922 3.989734 L 98.464203 3.989734 C 98.800921 3.989734 98.974232 4.192755 98.974232 4.598798 C 98.974232 4.727543 98.959377 4.826577 98.929666 4.895902 L 98.365168 8.812725 C 98.320603 9.080119 98.241375 9.268285 98.122533 9.372272 C 98.013595 9.471306 97.810574 9.520824 97.51347 9.520824 L 87.070257 9.520824 C 86.867236 9.520824 86.713732 9.560438 86.609746 9.634714 C 86.510711 9.713942 86.45129 9.872397 86.431483 10.119984 L 85.99573 13.224723 L 85.951165 13.462406 C 85.951165 13.571344 85.980875 13.64562 86.035344 13.685234 C 86.094765 13.714945 86.203703 13.734752 86.362159 13.734752 L 92.735044 13.734752 C 92.957872 13.734752 93.106424 13.779317 93.170797 13.863497 C 93.235169 13.952628 93.245073 14.096228 93.205459 14.29925 L 92.596395 18.721151 C 92.571637 18.894461 92.527071 19.013303 92.462698 19.072724 C 92.398326 19.127193 92.264629 19.156903 92.061608 19.156903 L 85.550074 19.156903 C 85.39657 19.156903 85.28268 19.196517 85.213356 19.280697 C 85.144032 19.354973 85.089562 19.498573 85.044997 19.701594 L 84.579534 23.034113 L 84.579534 23.19752 C 84.579534 23.380735 84.65381 23.469866 84.807313 23.469866 L 96.032901 23.469866 C 96.26068 23.469866 96.404281 23.514432 96.468653 23.608515 C 96.542929 23.697646 96.557785 23.866005 96.513219 24.113592 L 95.933866 28.456265 C 95.8893 28.659286 95.824928 28.802886 95.730845 28.887066 C 95.641713 28.961342 95.463451 29.000956 95.196057 29.000956 L 77.057846 29.000956 C 76.765693 29.000956 76.552768 28.941535 76.41412 28.817742 C 76.280423 28.693948 76.21605 28.505782 76.21605 28.258195 L 76.250713 27.956139 Z M 120.707404 28.084885 C 120.75197 28.203726 120.771777 28.337423 120.771777 28.495879 C 120.771777 28.832597 120.558852 29.000956 120.128051 29.000956 L 113.59671 29.000956 C 113.349124 29.000956 113.156006 28.941535 113.017357 28.817742 C 112.888612 28.693948 112.784626 28.461217 112.715301 28.12945 L 110.764317 19.429249 C 110.719751 19.2906 110.670234 19.196517 110.610813 19.142048 C 110.551392 19.087579 110.437502 19.057869 110.254288 19.057869 L 108.238931 19.057869 C 108.055717 19.057869 107.931924 19.092531 107.857648 19.156903 C 107.793275 19.221276 107.748709 19.325262 107.728903 19.463911 L 106.486017 28.228485 C 106.436499 28.560251 106.327561 28.773176 106.15425 28.867259 C 105.990843 28.95639 105.693739 29.000956 105.267889 29.000956 L 99.603103 29.000956 C 99.018798 29.000956 98.771211 28.649383 98.865294 27.956139 L 102.163151 4.559184 C 102.187909 4.311597 102.237427 4.153141 102.311703 4.088769 C 102.395882 4.024396 102.539483 3.989734 102.742504 3.989734 L 113.997801 3.989734 C 116.98865 3.989734 119.311015 4.559184 120.959943 5.693131 C 122.613823 6.822127 123.440763 8.401731 123.440763 10.426992 C 123.440763 12.066016 122.960445 13.581248 122.004759 14.977638 C 121.054026 16.369076 119.81114 17.369326 118.281053 17.97839 C 117.988901 18.087328 117.810638 18.191315 117.751218 18.285398 C 117.696748 18.374529 117.696748 18.493371 117.741314 18.656778 Z M 112.279549 14.031856 C 113.200572 14.031856 113.968091 13.714945 114.582106 13.091026 C 115.201073 12.462155 115.513033 11.729298 115.513033 10.892455 C 115.513033 10.268536 115.285253 9.793169 114.819789 9.471306 C 114.359278 9.13954 113.770021 8.976133 113.052019 8.976133 L 109.610562 8.976133 C 109.457059 8.976133 109.34812 9.020698 109.273844 9.114781 C 109.209472 9.203913 109.155003 9.382175 109.110437 9.649569 L 108.536036 13.526779 L 108.536036 13.690186 C 108.536036 13.828835 108.560794 13.917966 108.615263 13.962532 C 108.674684 14.007097 108.773719 14.031856 108.902464 14.031856 Z M 141.301677 10.392329 C 140.108309 9.362368 138.57327 8.842436 136.681707 8.842436 C 135.557663 8.842436 134.66635 9.02565 134.002817 9.387127 C 133.334333 9.743652 133.002567 10.258633 133.002567 10.93702 C 133.002567 11.719395 133.680954 12.313603 135.027827 12.719646 L 140.420268 14.47256 C 142.217748 15.056865 143.554717 15.814481 144.426223 16.745408 C 145.307632 17.676334 145.743385 18.854847 145.743385 20.266092 C 145.743385 22.157656 145.228404 23.786777 144.198443 25.158408 C 143.168482 26.530039 141.757237 27.569904 139.96966 28.278002 C 138.177131 28.981149 136.171678 29.337674 133.9533 29.337674 C 131.3883 29.337674 129.214488 28.916776 127.426911 28.079933 C 125.639334 27.233186 124.341979 26.069528 123.529894 24.579055 C 123.401149 24.267096 123.336777 24.088833 123.336777 24.044267 C 123.336777 23.910571 123.435811 23.771922 123.628929 23.643177 L 127.209035 21.444606 C 127.387297 21.335667 127.575463 21.281198 127.778484 21.281198 C 128.095395 21.281198 128.3925 21.449557 128.659893 21.781324 C 129.264005 22.45476 129.788889 22.964789 130.239497 23.306459 C 130.690105 23.638225 131.249652 23.900667 131.92804 24.093785 C 132.601476 24.286903 133.502692 24.380986 134.626736 24.380986 C 135.681456 24.380986 136.54801 24.212626 137.236301 23.866005 C 137.919641 23.514432 138.261311 22.930127 138.261311 22.118042 C 138.261311 21.310909 137.577971 20.706797 136.20634 20.300755 L 131.249652 18.785523 C 129.546254 18.270542 128.219189 17.463409 127.278359 16.359172 C 126.332577 15.254935 125.862162 13.962532 125.862162 12.481962 C 125.862162 10.753806 126.367239 9.213816 127.377394 7.866944 C 128.382596 6.51512 129.739372 5.475255 131.432866 4.74735 C 133.131312 4.014493 134.973358 3.653016 136.949101 3.653016 C 139.038734 3.653016 140.895635 4.014493 142.524756 4.74735 C 144.158829 5.475255 145.376956 6.381423 146.189041 7.460901 C 146.362352 7.708488 146.451483 7.911509 146.451483 8.065013 C 146.451483 8.223469 146.377207 8.347262 146.223703 8.431442 L 142.346494 10.93702 C 142.232604 11.0212 142.103859 11.026152 141.96521 10.951876 C 141.836465 10.867696 141.702768 10.768661 141.564119 10.644868 C 141.430422 10.521075 141.346243 10.436895 141.301677 10.392329 Z M 141.301677 10.392329 " stroke="#267765" stroke-width="1.264275" stroke-opacity="1" stroke-miterlimit="4"/><g fill="#184e41" fill-opacity="1"><g transform="translate(17.238494, 32.034533)"><g><path d="M 3.5625 -22.109375 C 3.582031 -22.335938 3.628906 -22.476562 3.703125 -22.53125 C 3.773438 -22.59375 3.90625 -22.625 4.09375 -22.625 L 20.59375 -22.625 C 20.75 -22.625 20.851562 -22.582031 20.90625 -22.5 C 20.957031 -22.425781 20.960938 -22.273438 20.921875 -22.046875 L 20.375 -18.265625 C 20.332031 -18.023438 20.265625 -17.859375 20.171875 -17.765625 C 20.078125 -17.671875 19.898438 -17.625 19.640625 -17.625 L 10.21875 -17.625 C 10.050781 -17.625 9.9375 -17.578125 9.875 -17.484375 C 9.820312 -17.398438 9.785156 -17.222656 9.765625 -16.953125 L 9.328125 -14 L 9.296875 -13.78125 C 9.296875 -13.695312 9.320312 -13.640625 9.375 -13.609375 C 9.425781 -13.585938 9.523438 -13.578125 9.671875 -13.578125 L 15.609375 -13.578125 C 15.773438 -13.578125 15.882812 -13.550781 15.9375 -13.5 C 15.988281 -13.445312 16.003906 -13.335938 15.984375 -13.171875 L 15.40625 -9.15625 C 15.382812 -8.96875 15.332031 -8.847656 15.25 -8.796875 C 15.164062 -8.742188 15.015625 -8.71875 14.796875 -8.71875 L 9 -8.71875 C 8.832031 -8.71875 8.71875 -8.679688 8.65625 -8.609375 C 8.601562 -8.546875 8.554688 -8.367188 8.515625 -8.078125 L 7.46875 -0.703125 C 7.425781 -0.398438 7.359375 -0.207031 7.265625 -0.125 C 7.179688 -0.0390625 6.984375 0 6.671875 0 L 1.15625 0 C 0.914062 0 0.75 -0.0234375 0.65625 -0.078125 C 0.5625 -0.128906 0.515625 -0.242188 0.515625 -0.421875 C 0.515625 -0.484375 0.535156 -0.660156 0.578125 -0.953125 Z M 3.5625 -22.109375 "/></g></g></g><g fill="#184e41" fill-opacity="1"><g transform="translate(37.059945, 32.034533)"><g><path d="M 10 -22.625 C 10.34375 -22.625 10.488281 -22.351562 10.4375 -21.8125 L 7.46875 -0.703125 C 7.425781 -0.398438 7.34375 -0.207031 7.21875 -0.125 C 7.101562 -0.0390625 6.863281 0 6.5 0 L 1.1875 0 C 0.757812 0 0.546875 -0.210938 0.546875 -0.640625 L 0.578125 -0.953125 L 3.5625 -22.109375 C 3.582031 -22.335938 3.628906 -22.476562 3.703125 -22.53125 C 3.773438 -22.59375 3.90625 -22.625 4.09375 -22.625 Z M 10 -22.625 "/></g></g></g><g fill="#184e41" fill-opacity="1"><g transform="translate(47.153636, 32.034533)"><g><path d="M 2.84375 -22.109375 C 2.875 -22.316406 2.9375 -22.453125 3.03125 -22.515625 C 3.125 -22.585938 3.289062 -22.625 3.53125 -22.625 L 22.078125 -22.625 C 22.328125 -22.625 22.476562 -22.585938 22.53125 -22.515625 C 22.59375 -22.453125 22.601562 -22.316406 22.5625 -22.109375 L 22.015625 -18.109375 C 21.992188 -17.953125 21.9375 -17.847656 21.84375 -17.796875 C 21.757812 -17.742188 21.613281 -17.71875 21.40625 -17.71875 L 16.015625 -17.71875 C 15.804688 -17.71875 15.671875 -17.6875 15.609375 -17.625 C 15.554688 -17.5625 15.507812 -17.429688 15.46875 -17.234375 L 13.109375 -0.578125 C 13.085938 -0.359375 13.03125 -0.207031 12.9375 -0.125 C 12.851562 -0.0390625 12.71875 0 12.53125 0 L 6.796875 0 C 6.390625 0 6.1875 -0.160156 6.1875 -0.484375 C 6.1875 -0.609375 6.195312 -0.710938 6.21875 -0.796875 L 8.578125 -17.359375 L 8.578125 -17.453125 C 8.578125 -17.628906 8.472656 -17.71875 8.265625 -17.71875 L 2.8125 -17.71875 C 2.582031 -17.71875 2.429688 -17.753906 2.359375 -17.828125 C 2.285156 -17.898438 2.257812 -18.023438 2.28125 -18.203125 Z M 2.84375 -22.109375 "/></g></g></g><g fill="#184e41" fill-opacity="1"><g transform="translate(68.621789, 32.034533)"><g><path d="M 23.234375 -22.625 C 23.523438 -22.625 23.648438 -22.460938 23.609375 -22.140625 L 20.53125 -0.359375 C 20.507812 -0.222656 20.453125 -0.128906 20.359375 -0.078125 C 20.265625 -0.0234375 20.117188 0 19.921875 0 L 15.734375 0 C 15.597656 0 15.476562 -0.046875 15.375 -0.140625 C 15.269531 -0.234375 15.144531 -0.390625 15 -0.609375 L 8.140625 -11.984375 C 8.078125 -12.085938 8.015625 -12.140625 7.953125 -12.140625 C 7.835938 -12.140625 7.769531 -12.007812 7.75 -11.75 L 6.15625 -0.578125 C 6.132812 -0.335938 6.078125 -0.179688 5.984375 -0.109375 C 5.898438 -0.0351562 5.710938 0 5.421875 0 L 1.03125 0 C 0.644531 0 0.484375 -0.265625 0.546875 -0.796875 L 3.5625 -22.109375 C 3.582031 -22.335938 3.632812 -22.476562 3.71875 -22.53125 C 3.800781 -22.59375 3.953125 -22.625 4.171875 -22.625 L 9.15625 -22.625 C 9.375 -22.625 9.546875 -22.566406 9.671875 -22.453125 C 9.804688 -22.347656 9.945312 -22.171875 10.09375 -21.921875 L 16.046875 -11.796875 C 16.148438 -11.640625 16.25 -11.5625 16.34375 -11.5625 C 16.40625 -11.5625 16.460938 -11.59375 16.515625 -11.65625 C 16.566406 -11.726562 16.601562 -11.828125 16.625 -11.953125 L 18.0625 -22.171875 C 18.082031 -22.378906 18.128906 -22.503906 18.203125 -22.546875 C 18.285156 -22.597656 18.441406 -22.625 18.671875 -22.625 Z M 23.234375 -22.625 "/></g></g></g><g fill="#184e41" fill-opacity="1"><g transform="translate(91.828128, 32.034533)"><g><path d="M 3.5625 -22.109375 C 3.582031 -22.335938 3.628906 -22.476562 3.703125 -22.53125 C 3.773438 -22.59375 3.90625 -22.625 4.09375 -22.625 L 20.671875 -22.625 C 20.984375 -22.625 21.140625 -22.441406 21.140625 -22.078125 C 21.140625 -21.960938 21.128906 -21.875 21.109375 -21.8125 L 20.59375 -18.265625 C 20.550781 -18.023438 20.476562 -17.859375 20.375 -17.765625 C 20.269531 -17.671875 20.085938 -17.625 19.828125 -17.625 L 10.375 -17.625 C 10.1875 -17.625 10.046875 -17.585938 9.953125 -17.515625 C 9.867188 -17.453125 9.816406 -17.304688 9.796875 -17.078125 L 9.390625 -14.28125 L 9.359375 -14.0625 C 9.359375 -13.957031 9.382812 -13.890625 9.4375 -13.859375 C 9.488281 -13.828125 9.585938 -13.8125 9.734375 -13.8125 L 15.5 -13.8125 C 15.695312 -13.8125 15.828125 -13.769531 15.890625 -13.6875 C 15.953125 -13.613281 15.960938 -13.484375 15.921875 -13.296875 L 15.375 -9.296875 C 15.351562 -9.140625 15.3125 -9.035156 15.25 -8.984375 C 15.1875 -8.929688 15.066406 -8.90625 14.890625 -8.90625 L 9 -8.90625 C 8.851562 -8.90625 8.75 -8.867188 8.6875 -8.796875 C 8.625 -8.722656 8.578125 -8.597656 8.546875 -8.421875 L 8.109375 -5.40625 L 8.109375 -5.25 C 8.109375 -5.082031 8.179688 -5 8.328125 -5 L 18.484375 -5 C 18.679688 -5 18.8125 -4.957031 18.875 -4.875 C 18.9375 -4.800781 18.945312 -4.648438 18.90625 -4.421875 L 18.390625 -0.484375 C 18.347656 -0.304688 18.285156 -0.179688 18.203125 -0.109375 C 18.128906 -0.0351562 17.96875 0 17.71875 0 L 1.3125 0 C 1.050781 0 0.859375 -0.0507812 0.734375 -0.15625 C 0.609375 -0.269531 0.546875 -0.441406 0.546875 -0.671875 L 0.578125 -0.953125 Z M 3.5625 -22.109375 "/></g></g></g><g fill="#184e41" fill-opacity="1"><g transform="translate(112.289966, 32.034533)"><g><path d="M 16.4375 -16.84375 C 15.363281 -17.769531 13.972656 -18.234375 12.265625 -18.234375 C 11.242188 -18.234375 10.429688 -18.070312 9.828125 -17.75 C 9.234375 -17.425781 8.9375 -16.957031 8.9375 -16.34375 C 8.9375 -15.632812 9.546875 -15.097656 10.765625 -14.734375 L 15.640625 -13.140625 C 17.273438 -12.617188 18.488281 -11.9375 19.28125 -11.09375 C 20.070312 -10.25 20.46875 -9.1875 20.46875 -7.90625 C 20.46875 -6.195312 20 -4.71875 19.0625 -3.46875 C 18.125 -2.226562 16.847656 -1.285156 15.234375 -0.640625 C 13.617188 -0.00390625 11.804688 0.3125 9.796875 0.3125 C 7.472656 0.3125 5.503906 -0.0664062 3.890625 -0.828125 C 2.273438 -1.597656 1.097656 -2.65625 0.359375 -4 C 0.242188 -4.28125 0.1875 -4.441406 0.1875 -4.484375 C 0.1875 -4.609375 0.273438 -4.726562 0.453125 -4.84375 L 3.6875 -6.828125 C 3.851562 -6.929688 4.023438 -6.984375 4.203125 -6.984375 C 4.492188 -6.984375 4.757812 -6.832031 5 -6.53125 C 5.550781 -5.914062 6.03125 -5.457031 6.4375 -5.15625 C 6.84375 -4.851562 7.347656 -4.613281 7.953125 -4.4375 C 8.566406 -4.257812 9.382812 -4.171875 10.40625 -4.171875 C 11.351562 -4.171875 12.132812 -4.328125 12.75 -4.640625 C 13.375 -4.960938 13.6875 -5.488281 13.6875 -6.21875 C 13.6875 -6.945312 13.066406 -7.5 11.828125 -7.875 L 7.34375 -9.234375 C 5.800781 -9.703125 4.601562 -10.4375 3.75 -11.4375 C 2.894531 -12.4375 2.46875 -13.601562 2.46875 -14.9375 C 2.46875 -16.507812 2.925781 -17.90625 3.84375 -19.125 C 4.757812 -20.34375 5.984375 -21.28125 7.515625 -21.9375 C 9.054688 -22.601562 10.71875 -22.9375 12.5 -22.9375 C 14.394531 -22.9375 16.078125 -22.601562 17.546875 -21.9375 C 19.023438 -21.28125 20.128906 -20.460938 20.859375 -19.484375 C 21.023438 -19.265625 21.109375 -19.082031 21.109375 -18.9375 C 21.109375 -18.800781 21.035156 -18.691406 20.890625 -18.609375 L 17.390625 -16.34375 C 17.285156 -16.257812 17.171875 -16.253906 17.046875 -16.328125 C 16.921875 -16.398438 16.796875 -16.492188 16.671875 -16.609375 C 16.554688 -16.722656 16.476562 -16.800781 16.4375 -16.84375 Z M 16.4375 -16.84375 "/></g></g></g><g fill="#184e41" fill-opacity="1"><g transform="translate(133.666638, 32.034533)"><g><path d="M 16.4375 -16.84375 C 15.363281 -17.769531 13.972656 -18.234375 12.265625 -18.234375 C 11.242188 -18.234375 10.429688 -18.070312 9.828125 -17.75 C 9.234375 -17.425781 8.9375 -16.957031 8.9375 -16.34375 C 8.9375 -15.632812 9.546875 -15.097656 10.765625 -14.734375 L 15.640625 -13.140625 C 17.273438 -12.617188 18.488281 -11.9375 19.28125 -11.09375 C 20.070312 -10.25 20.46875 -9.1875 20.46875 -7.90625 C 20.46875 -6.195312 20 -4.71875 19.0625 -3.46875 C 18.125 -2.226562 16.847656 -1.285156 15.234375 -0.640625 C 13.617188 -0.00390625 11.804688 0.3125 9.796875 0.3125 C 7.472656 0.3125 5.503906 -0.0664062 3.890625 -0.828125 C 2.273438 -1.597656 1.097656 -2.65625 0.359375 -4 C 0.242188 -4.28125 0.1875 -4.441406 0.1875 -4.484375 C 0.1875 -4.609375 0.273438 -4.726562 0.453125 -4.84375 L 3.6875 -6.828125 C 3.851562 -6.929688 4.023438 -6.984375 4.203125 -6.984375 C 4.492188 -6.984375 4.757812 -6.832031 5 -6.53125 C 5.550781 -5.914062 6.03125 -5.457031 6.4375 -5.15625 C 6.84375 -4.851562 7.347656 -4.613281 7.953125 -4.4375 C 8.566406 -4.257812 9.382812 -4.171875 10.40625 -4.171875 C 11.351562 -4.171875 12.132812 -4.328125 12.75 -4.640625 C 13.375 -4.960938 13.6875 -5.488281 13.6875 -6.21875 C 13.6875 -6.945312 13.066406 -7.5 11.828125 -7.875 L 7.34375 -9.234375 C 5.800781 -9.703125 4.601562 -10.4375 3.75 -11.4375 C 2.894531 -12.4375 2.46875 -13.601562 2.46875 -14.9375 C 2.46875 -16.507812 2.925781 -17.90625 3.84375 -19.125 C 4.757812 -20.34375 5.984375 -21.28125 7.515625 -21.9375 C 9.054688 -22.601562 10.71875 -22.9375 12.5 -22.9375 C 14.394531 -22.9375 16.078125 -22.601562 17.546875 -21.9375 C 19.023438 -21.28125 20.128906 -20.460938 20.859375 -19.484375 C 21.023438 -19.265625 21.109375 -19.082031 21.109375 -18.9375 C 21.109375 -18.800781 21.035156 -18.691406 20.890625 -18.609375 L 17.390625 -16.34375 C 17.285156 -16.257812 17.171875 -16.253906 17.046875 -16.328125 C 16.921875 -16.398438 16.796875 -16.492188 16.671875 -16.609375 C 16.554688 -16.722656 16.476562 -16.800781 16.4375 -16.84375 Z M 16.4375 -16.84375 "/></g></g></g></svg>