<svg xmlns="http://www.w3.org/2000/svg" xmlns:xlink="http://www.w3.org/1999/xlink" width="500" zoomAndPan="magnify" viewBox="0 0 375 374.999991" height="500" preserveAspectRatio="xMidYMid meet" version="1.0"><defs><clipPath id="a40f4f678d"><path d="M 37.5 16 L 337.5 16 L 337.5 81 L 37.5 81 Z M 37.5 16 " clip-rule="nonzero"/></clipPath></defs><g clip-path="url(#a40f4f678d)"><path fill="#545454" d="M 326.753906 37.488281 L 246.417969 37.488281 L 240.125 24.984375 C 237.40625 19.527344 231.828125 16.082031 225.726562 16.089844 L 149.203125 16.089844 C 143.117188 16.0625 137.546875 19.515625 134.875 24.984375 L 128.582031 37.488281 L 48.246094 37.488281 C 42.332031 37.488281 37.53125 42.28125 37.53125 48.191406 L 37.53125 69.589844 C 37.53125 75.503906 42.332031 80.292969 48.246094 80.292969 L 326.753906 80.292969 C 332.667969 80.292969 337.46875 75.503906 337.46875 69.589844 L 337.46875 48.191406 C 337.46875 42.28125 332.667969 37.488281 326.753906 37.488281 " fill-opacity="1" fill-rule="nonzero"/></g><path fill="#545454" d="M 253.875 305.085938 C 253.875 314.597656 246.078125 322.382812 236.558594 322.382812 C 227.035156 322.382812 219.242188 314.597656 219.242188 305.085938 L 219.242188 155.136719 C 219.242188 145.625 227.035156 137.835938 236.558594 137.835938 C 246.078125 137.835938 253.875 145.625 253.875 155.136719 Z M 155.757812 305.085938 C 155.757812 314.597656 147.964844 322.382812 138.441406 322.382812 C 128.921875 322.382812 121.125 314.597656 121.125 305.085938 L 121.125 155.136719 C 121.125 145.625 128.921875 137.835938 138.441406 137.835938 C 147.964844 137.835938 155.757812 145.625 155.757812 155.136719 Z M 58.957031 101.699219 L 73.148438 328.429688 C 74.210938 345.34375 88.253906 358.523438 105.222656 358.53125 L 269.785156 358.53125 C 286.75 358.523438 300.789062 345.34375 301.851562 328.429688 L 316.046875 101.699219 L 58.957031 101.699219 " fill-opacity="1" fill-rule="nonzero"/></svg>